<svg width="416" height="324" viewBox="0 0 416 324" fill="none" xmlns="http://www.w3.org/2000/svg">
<path d="M22.4054 191.351C32.6079 180.907 47.5327 167.215 56.7511 166.091C62.4126 163.235 70.4827 161.465 79.1065 159.651L83.5062 158.708C84.2198 155.491 85.7897 153.32 88.3491 152.109C103.995 144.735 120.976 132.916 137.871 119.293C137.759 118.325 137.812 117.302 138.086 116.233C139.116 112.218 142.626 109.364 145.919 109.855C146.87 109.997 147.718 110.209 148.653 110.362C153.656 106.094 158.593 101.749 163.461 97.3266C163.136 96.0955 163.02 94.737 163.396 93.2734C164.427 89.2514 167.937 86.3984 171.224 86.8883C171.532 86.9342 172.607 87.1011 174.235 87.4097C179.975 82.0141 185.66 76.5601 191.289 71.0488C191.238 70.2021 191.288 69.3177 191.521 68.4076C192.552 64.3857 196.058 61.5254 199.345 62.0152C199.666 62.0631 199.949 62.1317 200.257 62.1777C205.595 56.8463 210.907 51.4889 216.191 46.1058C216.187 45.3585 216.193 44.5931 216.396 43.804C217.425 39.7884 220.941 36.9363 224.222 37.4253L224.634 37.4999C246.18 15.5781 249.906 12.3411 254.157 12.9745C256.965 13.3931 259.523 13.9725 261.994 14.6116C263.396 13.017 264.805 11.476 266.208 9.85496C270.58 4.81138 278.597 -0.805594 291.877 1.17364C311.996 4.17205 335.73 23.3876 349.346 35.8889C366.392 31.5913 380.327 30.1267 390.61 31.6592C401.107 33.2237 405.107 37.4074 406.617 39.8061C406.715 39.9331 406.85 40.0193 406.937 40.1644C415.054 54.3502 416.349 78.8039 415.094 102.646C416.403 127.73 412.211 147.369 409.785 156.349C410.107 156.964 410.351 157.621 410.512 158.308C412.522 168.088 402.548 203.396 394.454 210.178C373.677 227.648 354.321 238.097 333.827 249.161C310.646 261.676 286.683 274.615 256.04 299.482C229.638 320.918 184.122 328.676 131.145 320.781C60.5695 310.263 -8.50803 273.678 1.1524 235.998C11.7869 194.519 17.3361 190.801 22.4054 191.351ZM27.6969 198.786C35.8588 222.209 96.2558 243.182 152.034 251.495C170.654 254.27 187.422 255.421 199.269 254.729C215.675 253.772 231.731 250.535 247.203 245.877C238.667 226.872 215.973 220.735 192.158 217.186C182.908 215.807 173.254 214.804 163.017 213.754C152.567 212.673 141.76 211.551 131.194 209.976C105.691 206.175 74.2391 198.832 55.2235 175.721C50.2505 177.702 38.9434 187.202 27.6969 198.786ZM117.549 151.612C112.918 154.912 108.545 158.046 104.758 160.858C99.5793 164.711 90.1248 166.704 80.1303 168.816C74.9601 169.908 69.7469 171.041 65.5222 172.347C82.7763 190.828 109.391 197.1 133.571 200.704C143.438 202.175 153.599 203.24 163.497 204.259C166.115 194.124 170.219 184.033 174.312 178.089C162.21 167.484 143.782 156.261 117.549 151.612ZM152.554 126.304C146.392 130.887 140.191 135.414 133.951 139.884C157.082 146.153 173.678 157.076 184.873 167.367C191.249 161.41 197.654 155.484 204.088 149.591C193.283 140.66 176.911 131.461 152.554 126.304ZM167.927 114.615C189.97 120.867 205.105 130.298 215.324 139.425C220.462 134.787 225.488 130.303 230.373 125.99C214.262 114.319 194.042 107.685 180.944 104.332C176.495 107.918 172.18 111.311 167.927 114.615ZM241.885 115.945C247.953 110.699 254.067 105.507 260.227 100.371C248.451 92.6036 231.978 84.4864 210.234 79.4155C205.247 83.8725 200.197 88.2585 195.086 92.5721C209.312 96.932 227.309 104.252 241.885 115.945ZM197.969 76.9931C194.115 80.7793 190.157 84.6161 186.091 88.4896C190.506 84.785 194.876 81.0269 199.2 77.2161C198.788 77.1415 198.391 77.0559 197.969 76.9931ZM222.581 52.3436C218.902 56.0833 215.035 59.9997 210.947 64.1143C211.705 64.267 212.413 64.465 213.161 64.6294C217.334 60.7569 221.462 56.8372 225.544 52.8712C224.543 52.6956 223.591 52.5075 222.581 52.3436ZM272.486 90.3716C278.186 85.7837 283.947 81.2746 289.768 76.846C277.692 68.8687 260.237 60.4004 236.169 54.9568C231.911 59.1718 227.678 63.2648 223.489 67.2125C245.094 73.3394 261.162 82.2157 272.486 90.3716ZM253.05 22.4689C250.227 24.4531 243.209 31.4016 235.292 39.4055C236.337 39.6141 237.39 39.8172 238.413 40.0357C243.932 34.3873 249.353 28.6465 254.673 22.8166C254.118 22.714 253.626 22.568 253.05 22.4689ZM289.498 10.4521C282.382 9.39159 277.036 11.0459 273.159 15.5092C265.189 24.6956 256.976 33.6791 248.529 42.4485C273.349 49.0614 290.853 58.7659 302.675 67.452C319.473 55.5852 333.118 47.7018 343.459 44.0102C330.73 32.2028 307.803 13.1802 289.498 10.4521ZM398.135 44.8913C397.345 44.0468 394.788 41.9082 388.239 40.9322C383.163 40.1758 374.755 40.0789 361.767 42.517C377.282 46.7189 382.873 60.7132 387.319 72.2377C390.183 79.6283 392.867 86.6022 396.842 87.4192C400.126 84.6052 400.706 64.4941 398.135 44.8913ZM406.038 89.4174C405.253 91.1505 404.301 92.6207 403.166 93.7332C400.834 95.9954 397.864 96.9732 394.791 96.5153C385.635 95.1507 382.111 86.0233 378.38 76.3497C373.913 64.8087 369.303 52.8767 355.626 50.8384C347.982 49.6991 332.22 57.6303 310.037 73.24C313.757 76.4505 316.527 79.2881 318.583 81.57C319.35 81.4356 320.12 81.4166 320.866 81.5138C325.671 82.2299 328.345 87.5573 326.844 93.412C325.343 99.2667 320.235 103.434 315.43 102.718C311.224 102.091 308.651 97.922 309.088 92.9526C305.539 89.1 301.666 85.5542 297.504 82.3463C291.555 86.8285 285.676 91.4061 279.869 96.0769C283.326 98.9486 286.596 102.028 289.664 105.3C290.479 105.141 291.301 105.113 292.097 105.22C296.895 105.935 299.571 111.256 298.068 117.117C296.566 122.978 291.459 127.139 286.661 126.424C282.523 125.807 279.986 121.756 280.317 116.896C276.492 112.874 272.349 109.161 267.92 105.786C261.758 110.873 255.342 116.266 248.687 122C252.955 126.202 256.66 130.933 259.729 136.1C259.969 136.109 260.204 136.085 260.443 136.12C265.26 136.838 267.929 142.165 266.427 148.02C264.928 153.868 259.824 158.043 255.007 157.325C250.303 156.624 247.659 151.459 248.998 145.726C245.878 140.496 242.002 135.79 237.476 131.739C232.371 136.225 227.133 140.868 221.76 145.683C225.505 149.719 228.793 154.158 231.576 158.933C231.774 158.95 231.978 158.92 232.173 158.95C236.965 159.664 239.644 164.998 238.143 170.853C236.644 176.701 231.527 180.874 226.735 180.16C221.987 179.452 219.35 174.236 220.732 168.463C217.914 163.802 214.563 159.508 210.738 155.656C204.19 161.628 197.678 167.639 191.202 173.688C194.717 177.445 197.937 181.468 200.838 185.729C201.259 185.719 201.675 185.701 202.084 185.762C206.895 186.479 209.561 191.812 208.062 197.66C206.561 203.515 201.459 207.684 196.648 206.967C192.152 206.296 189.559 201.543 190.508 196.108C187.596 191.903 184.351 187.951 180.798 184.281C177.622 189.252 174.739 197.332 172.751 205.242C180.043 205.979 187.302 206.865 194.526 207.899C221.578 211.931 247.351 219.188 256.672 242.856C301.527 227.427 340.523 200.475 366.7 180.353C371.539 159.642 379.897 147.495 388.117 135.909C394.982 126.216 401.468 117.034 405.573 102.754C405.834 98.2933 406.009 93.8134 406.038 89.4174ZM395.744 140.712C389.467 149.562 383.472 158.209 379.052 170.678C381.232 168.935 383.275 167.291 385.154 165.774C393.481 159.073 397.862 155.603 400.82 154.009C403.141 144.832 404.649 135.556 405.325 126.29C402.274 131.511 398.978 136.153 395.744 140.712ZM133.524 311.503C183.755 318.989 226.371 312.06 250.467 292.507C281.913 266.98 307.438 253.203 329.96 241.04C349.944 230.256 368.817 220.06 388.738 203.327C392.865 199.674 400.619 174.507 401.331 164.385C398.53 166.485 394.57 169.668 390.697 172.79C358.606 198.638 283.457 259.15 198.817 264.09C186.347 264.815 168.881 263.632 149.657 260.767C106.51 254.337 35.1777 236.008 20.0122 206.091C17.8742 211.243 14.6768 220.578 10.3744 237.36C3.1629 265.488 61.8652 300.823 133.524 311.503Z" fill="black"/>
</svg>
